<svg id="swirl" xmlns="http://www.w3.org/2000/svg" viewBox="0 0 923.18 282.39">
  <title>swirl</title>
  <path d="M-249.91,190.21c147.85-76,447-95.73,686.77-55.74,196.33,32.74,265.08,104.19,154.49,159-90.76,45-365.07,82.43-534.27,52.34C-98.84,318.07-244.16,255.4-51.14,194.61c82.43-26,309.9-33,414.56-12.28,74.29,14.71,99.22,65.9,55.4,89-35.06,18.49-173.53,35.4-243,28.93C50.26,288.59,45.34,259.85,53.61,243.35c7.56-15.09,112-30.54,185.48-16.71,30.94,5.83,15.07,24.6-2.88,34.07" transform="translate(259.06 -94.25)" fill="none" stroke="#e6bb99" stroke-miterlimit="10" stroke-width="40" opacity="0.7"/>
</svg>
